<svg width="20" height="17" viewBox="0 0 20 17" fill="none" xmlns="http://www.w3.org/2000/svg">
<path d="M9.99963 5.99995V9.33328M9.99963 12.6666H10.008M8.84573 1.74305L1.99166 13.5819C1.61149 14.2386 1.4214 14.5669 1.4495 14.8364C1.474 15.0714 1.59714 15.285 1.78828 15.424C2.00741 15.5833 2.38679 15.5833 3.14556 15.5833H16.8537C17.6125 15.5833 17.9919 15.5833 18.211 15.424C18.4021 15.285 18.5253 15.0714 18.5498 14.8364C18.5779 14.5669 18.3878 14.2386 18.0076 13.5819L11.1535 1.74305C10.7747 1.08875 10.5853 0.761595 10.3382 0.651717C10.1227 0.555873 9.8766 0.555873 9.66105 0.651717C9.41394 0.761595 9.22454 1.08875 8.84573 1.74305Z" stroke="#ED3433" stroke-linecap="round" stroke-linejoin="round"/>
</svg>
